<svg width="191" height="190" xmlns="http://www.w3.org/2000/svg" xmlns:xlink="http://www.w3.org/1999/xlink" xml:space="preserve" overflow="hidden"><defs><clipPath id="clip0"><rect x="657" y="308" width="191" height="190"/></clipPath><clipPath id="clip1"><rect x="658" y="309" width="189" height="189"/></clipPath><clipPath id="clip2"><rect x="658" y="309" width="189" height="189"/></clipPath><clipPath id="clip3"><rect x="658" y="309" width="189" height="189"/></clipPath></defs><g clip-path="url(#clip0)" transform="translate(-657 -308)"><g clip-path="url(#clip1)"><g clip-path="url(#clip2)"><g clip-path="url(#clip3)"><path d="M826 384.432C826 341.97 793.03 309 752.5 309 711.97 309 679 341.97 679 382.5 666.789 388.768 658 400.308 658 414L658 435C658 452.397 672.103 466.5 689.5 466.5L700 466.5C705.799 466.5 710.5 461.799 710.5 456L710.5 393C710.5 387.201 705.799 382.5 700 382.5 700 353.505 723.505 330 752.5 330 781.495 330 805 353.505 805 382.5 799.201 382.5 794.5 387.201 794.5 393L794.5 456C794.5 461.799 799.201 466.5 805 466.5L805 477 777.784 477C775.621 470.9 769.846 466.5 763 466.5L742 466.5C733.302 466.5 726.25 473.552 726.25 482.25 726.25 490.948 733.302 498 742 498L805 498C816.598 498 826 488.598 826 477L826 464.578C838.56 460.164 846.975 448.313 847 435L847 414C846.976 400.689 838.56 388.839 826 384.432L584.5 960" fill="#56058F" fill-rule="evenodd" fill-opacity="1"/></g></g></g></g></svg>